<svg width="660" height="693" viewBox="0 0 660 693" fill="none" xmlns="http://www.w3.org/2000/svg">
<g opacity="0.4">
<g opacity="0.5">
<ellipse rx="12.8985" ry="9.63693" transform="matrix(0.999835 0.0181557 -0.022125 0.999755 329.724 583.575)" fill="white"/>
<ellipse rx="12.8985" ry="9.63693" transform="matrix(0.999835 0.0181557 -0.022125 0.999755 339.394 555.317)" fill="white"/>
<ellipse rx="12.8985" ry="9.63693" transform="matrix(0.999835 0.0181557 -0.022125 0.999755 304.444 559.983)" fill="white"/>
<ellipse rx="12.8985" ry="9.63693" transform="matrix(0.999835 0.0181557 -0.022125 0.999755 360.772 574.982)" fill="white"/>
<ellipse rx="12.8985" ry="9.63693" transform="matrix(0.999835 0.0181557 -0.022125 0.999755 317.841 531.552)" fill="white"/>
<ellipse rx="12.8985" ry="9.63693" transform="matrix(0.999835 0.0181557 -0.022125 0.999755 374.43 546.797)" fill="white"/>
<ellipse rx="12.8985" ry="9.63693" transform="matrix(0.999835 0.0181557 -0.022125 0.999755 349.064 527.059)" fill="white"/>
<ellipse rx="12.8985" ry="9.63693" transform="matrix(0.999835 0.0181557 -0.022125 0.999755 341.794 627.167)" fill="white"/>
<ellipse rx="12.8985" ry="9.63693" transform="matrix(0.999835 0.0181557 -0.022125 0.999755 351.464 598.909)" fill="white"/>
<ellipse rx="12.8985" ry="9.63693" transform="matrix(0.999835 0.0181557 -0.022125 0.999755 316.513 603.576)" fill="white"/>
<ellipse rx="12.8985" ry="9.63693" transform="matrix(0.999835 0.0181557 -0.022125 0.999755 372.842 618.574)" fill="white"/>
<ellipse rx="12.8985" ry="9.63693" transform="matrix(0.999835 0.0181557 -0.022125 0.999755 329.911 575.145)" fill="white"/>
<ellipse rx="12.8985" ry="9.63693" transform="matrix(0.999835 0.0181557 -0.022125 0.999755 386.5 590.389)" fill="white"/>
<ellipse rx="12.8985" ry="9.63693" transform="matrix(0.999835 0.0181557 -0.022125 0.999755 361.134 570.651)" fill="white"/>
<ellipse rx="12.8985" ry="9.63693" transform="matrix(0.999835 0.0181557 -0.022125 0.999755 326.781 536.293)" fill="white"/>
<ellipse rx="12.8985" ry="9.63693" transform="matrix(0.999835 0.0181557 -0.022125 0.999755 336.45 508.035)" fill="white"/>
<ellipse rx="12.8985" ry="9.63693" transform="matrix(0.999835 0.0181557 -0.022125 0.999755 301.5 512.702)" fill="white"/>
<ellipse rx="12.8985" ry="9.63693" transform="matrix(0.999835 0.0181557 -0.022125 0.999755 357.828 527.7)" fill="white"/>
<ellipse rx="12.8985" ry="9.63693" transform="matrix(0.999835 0.0181557 -0.022125 0.999755 314.897 484.27)" fill="white"/>
<ellipse rx="12.8985" ry="9.63693" transform="matrix(0.999835 0.0181557 -0.022125 0.999755 371.486 499.515)" fill="white"/>
<ellipse rx="12.8985" ry="9.63693" transform="matrix(0.999835 0.0181557 -0.022125 0.999755 346.12 479.777)" fill="white"/>
<ellipse rx="12.8985" ry="9.63693" transform="matrix(0.999835 0.0181557 -0.022125 0.999755 386.341 585.567)" fill="white"/>
<ellipse rx="12.8985" ry="9.63693" transform="matrix(0.999835 0.0181557 -0.022125 0.999755 396.01 557.309)" fill="white"/>
<ellipse rx="12.8985" ry="9.63693" transform="matrix(0.999835 0.0181557 -0.022125 0.999755 361.06 561.975)" fill="white"/>
<ellipse rx="12.8985" ry="9.63693" transform="matrix(0.999835 0.0181557 -0.022125 0.999755 417.388 576.974)" fill="white"/>
<ellipse rx="12.8985" ry="9.63693" transform="matrix(0.999835 0.0181557 -0.022125 0.999755 374.457 533.544)" fill="white"/>
<ellipse rx="12.8985" ry="9.63693" transform="matrix(0.999835 0.0181557 -0.022125 0.999755 431.046 548.789)" fill="white"/>
<ellipse rx="12.8985" ry="9.63693" transform="matrix(0.999835 0.0181557 -0.022125 0.999755 405.681 529.051)" fill="white"/>
<ellipse rx="12.8985" ry="9.63693" transform="matrix(0.999835 0.0181557 -0.022125 0.999755 281.381 616.432)" fill="white"/>
<ellipse rx="12.8985" ry="9.63693" transform="matrix(0.999835 0.0181557 -0.022125 0.999755 291.051 588.174)" fill="white"/>
<ellipse rx="12.8985" ry="9.63693" transform="matrix(0.999835 0.0181557 -0.022125 0.999755 256.1 592.84)" fill="white"/>
<ellipse rx="12.8985" ry="9.63693" transform="matrix(0.999835 0.0181557 -0.022125 0.999755 312.429 607.839)" fill="white"/>
<ellipse rx="12.8985" ry="9.63693" transform="matrix(0.999835 0.0181557 -0.022125 0.999755 269.498 564.409)" fill="white"/>
<ellipse rx="12.8985" ry="9.63693" transform="matrix(0.999835 0.0181557 -0.022125 0.999755 326.087 579.653)" fill="white"/>
<ellipse rx="12.8985" ry="9.63693" transform="matrix(0.999835 0.0181557 -0.022125 0.999755 300.721 559.916)" fill="white"/>
<ellipse rx="12.8985" ry="9.63693" transform="matrix(0.999835 0.0181557 -0.022125 0.999755 282.171 568.736)" fill="white"/>
<ellipse rx="12.8985" ry="9.63693" transform="matrix(0.999835 0.0181557 -0.022125 0.999755 291.841 540.478)" fill="white"/>
<ellipse rx="12.8985" ry="9.63693" transform="matrix(0.999835 0.0181557 -0.022125 0.999755 256.89 545.144)" fill="white"/>
<ellipse rx="12.8985" ry="9.63693" transform="matrix(0.999835 0.0181557 -0.022125 0.999755 313.218 560.143)" fill="white"/>
<ellipse rx="12.8985" ry="9.63693" transform="matrix(0.999835 0.0181557 -0.022125 0.999755 270.288 516.713)" fill="white"/>
<ellipse rx="12.8985" ry="9.63693" transform="matrix(0.999835 0.0181557 -0.022125 0.999755 326.877 531.957)" fill="white"/>
<ellipse rx="12.8985" ry="9.63693" transform="matrix(0.999835 0.0181557 -0.022125 0.999755 301.511 512.22)" fill="white"/>
</g>
<g opacity="0.5">
<ellipse cx="86.5692" cy="632.753" rx="12.8989" ry="9.63651" fill="white"/>
<ellipse cx="95.6117" cy="604.325" rx="12.8989" ry="9.63651" fill="white"/>
<ellipse cx="60.7713" cy="609.625" rx="12.8989" ry="9.63651" fill="white"/>
<ellipse cx="117.42" cy="623.598" rx="12.8989" ry="9.63651" fill="white"/>
<ellipse cx="73.5373" cy="580.956" rx="12.8989" ry="9.63651" fill="white"/>
<ellipse cx="130.452" cy="595.17" rx="12.8989" ry="9.63651" fill="white"/>
<ellipse cx="104.654" cy="575.897" rx="12.8989" ry="9.63651" fill="white"/>
<ellipse cx="99.601" cy="676.117" rx="12.8989" ry="9.63651" fill="white"/>
<ellipse cx="108.644" cy="647.689" rx="12.8989" ry="9.63651" fill="white"/>
<ellipse cx="73.8031" cy="652.989" rx="12.8989" ry="9.63651" fill="white"/>
<ellipse cx="130.452" cy="666.962" rx="12.8989" ry="9.63651" fill="white"/>
<ellipse cx="86.5691" cy="624.321" rx="12.8989" ry="9.63651" fill="white"/>
<ellipse cx="143.484" cy="638.534" rx="12.8989" ry="9.63651" fill="white"/>
<ellipse cx="117.686" cy="619.261" rx="12.8989" ry="9.63651" fill="white"/>
<ellipse cx="82.5798" cy="585.534" rx="12.8989" ry="9.63651" fill="white"/>
<ellipse cx="91.6224" cy="557.106" rx="12.8989" ry="9.63651" fill="white"/>
<ellipse cx="56.782" cy="562.406" rx="12.8989" ry="9.63651" fill="white"/>
<ellipse cx="113.431" cy="576.379" rx="12.8989" ry="9.63651" fill="white"/>
<ellipse cx="69.5479" cy="533.737" rx="12.8989" ry="9.63651" fill="white"/>
<ellipse cx="126.463" cy="547.951" rx="12.8989" ry="9.63651" fill="white"/>
<ellipse cx="100.665" cy="528.678" rx="12.8989" ry="9.63651" fill="white"/>
<ellipse cx="143.218" cy="633.716" rx="12.8989" ry="9.63651" fill="white"/>
<ellipse cx="152.261" cy="605.289" rx="12.8989" ry="9.63651" fill="white"/>
<ellipse cx="117.42" cy="610.589" rx="12.8989" ry="9.63651" fill="white"/>
<ellipse cx="174.069" cy="624.562" rx="12.8989" ry="9.63651" fill="white"/>
<ellipse cx="130.186" cy="581.92" rx="12.8989" ry="9.63651" fill="white"/>
<ellipse cx="187.101" cy="596.134" rx="12.8989" ry="9.63651" fill="white"/>
<ellipse cx="161.303" cy="576.861" rx="12.8989" ry="9.63651" fill="white"/>
<ellipse cx="38.9627" cy="666.48" rx="12.8989" ry="9.63651" fill="white"/>
<ellipse cx="48.0053" cy="638.053" rx="12.8989" ry="9.63651" fill="white"/>
<ellipse cx="13.1649" cy="643.353" rx="12.8989" ry="9.63651" fill="white"/>
<ellipse cx="69.8138" cy="657.326" rx="12.8989" ry="9.63651" fill="white"/>
<ellipse cx="25.9308" cy="614.684" rx="12.8989" ry="9.63651" fill="white"/>
<ellipse cx="82.8457" cy="628.898" rx="12.8989" ry="9.63651" fill="white"/>
<ellipse cx="57.0478" cy="609.625" rx="12.8989" ry="9.63651" fill="white"/>
<ellipse cx="38.6968" cy="618.78" rx="12.8989" ry="9.63651" fill="white"/>
<ellipse cx="47.7394" cy="590.352" rx="12.8989" ry="9.63651" fill="white"/>
<ellipse cx="12.8989" cy="595.652" rx="12.8989" ry="9.63651" fill="white"/>
<ellipse cx="69.5479" cy="609.625" rx="12.8989" ry="9.63651" fill="white"/>
<ellipse cx="25.6649" cy="566.983" rx="12.8989" ry="9.63651" fill="white"/>
<ellipse cx="82.5798" cy="581.197" rx="12.8989" ry="9.63651" fill="white"/>
<ellipse cx="56.7819" cy="561.924" rx="12.8989" ry="9.63651" fill="white"/>
</g>
<g opacity="0.5">
<ellipse cx="482.569" cy="270.42" rx="12.8989" ry="9.63651" fill="white"/>
<ellipse cx="491.612" cy="241.992" rx="12.8989" ry="9.63651" fill="white"/>
<ellipse cx="456.771" cy="247.292" rx="12.8989" ry="9.63651" fill="white"/>
<ellipse cx="513.42" cy="261.265" rx="12.8989" ry="9.63651" fill="white"/>
<ellipse cx="469.537" cy="218.624" rx="12.8989" ry="9.63651" fill="white"/>
<ellipse cx="526.452" cy="232.837" rx="12.8989" ry="9.63651" fill="white"/>
<ellipse cx="500.654" cy="213.564" rx="12.8989" ry="9.63651" fill="white"/>
<ellipse cx="495.601" cy="313.784" rx="12.8989" ry="9.63651" fill="white"/>
<ellipse cx="504.644" cy="285.356" rx="12.8989" ry="9.63651" fill="white"/>
<ellipse cx="469.803" cy="290.656" rx="12.8989" ry="9.63651" fill="white"/>
<ellipse cx="526.452" cy="304.629" rx="12.8989" ry="9.63651" fill="white"/>
<ellipse cx="482.569" cy="261.988" rx="12.8989" ry="9.63651" fill="white"/>
<ellipse cx="539.484" cy="276.202" rx="12.8989" ry="9.63651" fill="white"/>
<ellipse cx="513.686" cy="256.929" rx="12.8989" ry="9.63651" fill="white"/>
<ellipse cx="478.58" cy="223.201" rx="12.8989" ry="9.63651" fill="white"/>
<ellipse cx="487.622" cy="194.773" rx="12.8989" ry="9.63651" fill="white"/>
<ellipse cx="452.782" cy="200.073" rx="12.8989" ry="9.63651" fill="white"/>
<ellipse cx="509.431" cy="214.046" rx="12.8989" ry="9.63651" fill="white"/>
<ellipse cx="465.548" cy="171.405" rx="12.8989" ry="9.63651" fill="white"/>
<ellipse cx="522.463" cy="185.618" rx="12.8989" ry="9.63651" fill="white"/>
<ellipse cx="496.665" cy="166.345" rx="12.8989" ry="9.63651" fill="white"/>
<ellipse cx="539.218" cy="271.383" rx="12.8989" ry="9.63651" fill="white"/>
<ellipse cx="548.261" cy="242.956" rx="12.8989" ry="9.63651" fill="white"/>
<ellipse cx="513.42" cy="248.256" rx="12.8989" ry="9.63651" fill="white"/>
<ellipse cx="570.069" cy="262.229" rx="12.8989" ry="9.63651" fill="white"/>
<ellipse cx="526.186" cy="219.587" rx="12.8989" ry="9.63651" fill="white"/>
<ellipse cx="583.101" cy="233.801" rx="12.8989" ry="9.63651" fill="white"/>
<ellipse cx="557.303" cy="214.528" rx="12.8989" ry="9.63651" fill="white"/>
<ellipse cx="434.963" cy="304.148" rx="12.8989" ry="9.63651" fill="white"/>
<ellipse cx="444.005" cy="275.72" rx="12.8989" ry="9.63651" fill="white"/>
<ellipse cx="409.165" cy="281.02" rx="12.8989" ry="9.63651" fill="white"/>
<ellipse cx="465.814" cy="294.993" rx="12.8989" ry="9.63651" fill="white"/>
<ellipse cx="421.931" cy="252.351" rx="12.8989" ry="9.63651" fill="white"/>
<ellipse cx="478.846" cy="266.565" rx="12.8989" ry="9.63651" fill="white"/>
<ellipse cx="453.048" cy="247.292" rx="12.8989" ry="9.63651" fill="white"/>
<ellipse cx="434.697" cy="256.447" rx="12.8989" ry="9.63651" fill="white"/>
<ellipse cx="443.739" cy="228.019" rx="12.8989" ry="9.63651" fill="white"/>
<ellipse cx="408.899" cy="233.319" rx="12.8989" ry="9.63651" fill="white"/>
<ellipse cx="465.548" cy="247.292" rx="12.8989" ry="9.63651" fill="white"/>
<ellipse cx="421.665" cy="204.651" rx="12.8989" ry="9.63651" fill="white"/>
<ellipse cx="478.58" cy="218.864" rx="12.8989" ry="9.63651" fill="white"/>
<ellipse cx="452.782" cy="199.591" rx="12.8989" ry="9.63651" fill="white"/>
</g>
<g opacity="0.5">
<ellipse cx="546.569" cy="639.999" rx="12.8989" ry="9.63651" fill="white"/>
<ellipse cx="555.612" cy="611.572" rx="12.8989" ry="9.63651" fill="white"/>
<ellipse cx="520.771" cy="616.872" rx="12.8989" ry="9.63651" fill="white"/>
<ellipse cx="577.42" cy="630.845" rx="12.8989" ry="9.63651" fill="white"/>
<ellipse cx="533.537" cy="588.203" rx="12.8989" ry="9.63651" fill="white"/>
<ellipse cx="590.452" cy="602.417" rx="12.8989" ry="9.63651" fill="white"/>
<ellipse cx="564.654" cy="583.144" rx="12.8989" ry="9.63651" fill="white"/>
<ellipse cx="559.601" cy="683.364" rx="12.8989" ry="9.63651" fill="white"/>
<ellipse cx="568.644" cy="654.936" rx="12.8989" ry="9.63651" fill="white"/>
<ellipse cx="533.803" cy="660.236" rx="12.8989" ry="9.63651" fill="white"/>
<ellipse cx="590.452" cy="674.209" rx="12.8989" ry="9.63651" fill="white"/>
<ellipse cx="546.569" cy="631.567" rx="12.8989" ry="9.63651" fill="white"/>
<ellipse cx="603.484" cy="645.781" rx="12.8989" ry="9.63651" fill="white"/>
<ellipse cx="577.686" cy="626.508" rx="12.8989" ry="9.63651" fill="white"/>
<ellipse cx="542.58" cy="592.78" rx="12.8989" ry="9.63651" fill="white"/>
<ellipse cx="551.622" cy="564.353" rx="12.8989" ry="9.63651" fill="white"/>
<ellipse cx="516.782" cy="569.653" rx="12.8989" ry="9.63651" fill="white"/>
<ellipse cx="573.431" cy="583.626" rx="12.8989" ry="9.63651" fill="white"/>
<ellipse cx="529.548" cy="540.984" rx="12.8989" ry="9.63651" fill="white"/>
<ellipse cx="586.463" cy="555.198" rx="12.8989" ry="9.63651" fill="white"/>
<ellipse cx="560.665" cy="535.925" rx="12.8989" ry="9.63651" fill="white"/>
<ellipse cx="603.218" cy="640.963" rx="12.8989" ry="9.63651" fill="white"/>
<ellipse cx="612.261" cy="612.535" rx="12.8989" ry="9.63651" fill="white"/>
<ellipse cx="577.42" cy="617.835" rx="12.8989" ry="9.63651" fill="white"/>
<ellipse cx="634.069" cy="631.808" rx="12.8989" ry="9.63651" fill="white"/>
<ellipse cx="590.186" cy="589.167" rx="12.8989" ry="9.63651" fill="white"/>
<ellipse cx="647.101" cy="603.38" rx="12.8989" ry="9.63651" fill="white"/>
<ellipse cx="621.303" cy="584.107" rx="12.8989" ry="9.63651" fill="white"/>
<ellipse cx="498.963" cy="673.727" rx="12.8989" ry="9.63651" fill="white"/>
<ellipse cx="508.005" cy="645.299" rx="12.8989" ry="9.63651" fill="white"/>
<ellipse cx="473.165" cy="650.599" rx="12.8989" ry="9.63651" fill="white"/>
<ellipse cx="529.814" cy="664.572" rx="12.8989" ry="9.63651" fill="white"/>
<ellipse cx="485.931" cy="621.931" rx="12.8989" ry="9.63651" fill="white"/>
<ellipse cx="542.846" cy="636.145" rx="12.8989" ry="9.63651" fill="white"/>
<ellipse cx="517.048" cy="616.872" rx="12.8989" ry="9.63651" fill="white"/>
<ellipse cx="498.697" cy="626.026" rx="12.8989" ry="9.63651" fill="white"/>
<ellipse cx="507.739" cy="597.599" rx="12.8989" ry="9.63651" fill="white"/>
<ellipse cx="472.899" cy="602.899" rx="12.8989" ry="9.63651" fill="white"/>
<ellipse cx="529.548" cy="616.872" rx="12.8989" ry="9.63651" fill="white"/>
<ellipse cx="485.665" cy="574.23" rx="12.8989" ry="9.63651" fill="white"/>
<ellipse cx="542.58" cy="588.444" rx="12.8989" ry="9.63651" fill="white"/>
<ellipse cx="516.782" cy="569.171" rx="12.8989" ry="9.63651" fill="white"/>
</g>
<g opacity="0.5">
<ellipse cx="545.569" cy="113.711" rx="12.8989" ry="9.63651" fill="white"/>
<ellipse cx="554.612" cy="85.2832" rx="12.8989" ry="9.63651" fill="white"/>
<ellipse cx="519.771" cy="90.5832" rx="12.8989" ry="9.63651" fill="white"/>
<ellipse cx="576.42" cy="104.556" rx="12.8989" ry="9.63651" fill="white"/>
<ellipse cx="532.537" cy="61.9146" rx="12.8989" ry="9.63651" fill="white"/>
<ellipse cx="589.452" cy="76.1285" rx="12.8989" ry="9.63651" fill="white"/>
<ellipse cx="563.654" cy="56.8554" rx="12.8989" ry="9.63651" fill="white"/>
<ellipse cx="558.601" cy="157.075" rx="12.8989" ry="9.63651" fill="white"/>
<ellipse cx="567.644" cy="128.647" rx="12.8989" ry="9.63651" fill="white"/>
<ellipse cx="532.803" cy="133.948" rx="12.8989" ry="9.63651" fill="white"/>
<ellipse cx="589.452" cy="147.92" rx="12.8989" ry="9.63651" fill="white"/>
<ellipse cx="545.569" cy="105.279" rx="12.8989" ry="9.63651" fill="white"/>
<ellipse cx="602.484" cy="119.493" rx="12.8989" ry="9.63651" fill="white"/>
<ellipse cx="576.686" cy="100.22" rx="12.8989" ry="9.63651" fill="white"/>
<ellipse cx="541.58" cy="66.4919" rx="12.8989" ry="9.63651" fill="white"/>
<ellipse cx="550.622" cy="38.0642" rx="12.8989" ry="9.63651" fill="white"/>
<ellipse cx="515.782" cy="43.3643" rx="12.8989" ry="9.63651" fill="white"/>
<ellipse cx="572.431" cy="57.3372" rx="12.8989" ry="9.63651" fill="white"/>
<ellipse cx="528.548" cy="14.6957" rx="12.8989" ry="9.63651" fill="white"/>
<ellipse cx="585.463" cy="28.9096" rx="12.8989" ry="9.63651" fill="white"/>
<ellipse cx="559.665" cy="9.63651" rx="12.8989" ry="9.63651" fill="white"/>
<ellipse cx="602.218" cy="114.674" rx="12.8989" ry="9.63651" fill="white"/>
<ellipse cx="611.261" cy="86.2467" rx="12.8989" ry="9.63651" fill="white"/>
<ellipse cx="576.42" cy="91.5468" rx="12.8989" ry="9.63651" fill="white"/>
<ellipse cx="633.069" cy="105.52" rx="12.8989" ry="9.63651" fill="white"/>
<ellipse cx="589.186" cy="62.8782" rx="12.8989" ry="9.63651" fill="white"/>
<ellipse cx="646.101" cy="77.092" rx="12.8989" ry="9.63651" fill="white"/>
<ellipse cx="620.303" cy="57.819" rx="12.8989" ry="9.63651" fill="white"/>
<ellipse cx="497.963" cy="147.439" rx="12.8989" ry="9.63651" fill="white"/>
<ellipse cx="507.005" cy="119.011" rx="12.8989" ry="9.63651" fill="white"/>
<ellipse cx="472.165" cy="124.311" rx="12.8989" ry="9.63651" fill="white"/>
<ellipse cx="528.814" cy="138.284" rx="12.8989" ry="9.63651" fill="white"/>
<ellipse cx="484.931" cy="95.6424" rx="12.8989" ry="9.63651" fill="white"/>
<ellipse cx="541.846" cy="109.856" rx="12.8989" ry="9.63651" fill="white"/>
<ellipse cx="516.048" cy="90.5832" rx="12.8989" ry="9.63651" fill="white"/>
<ellipse cx="497.697" cy="99.7379" rx="12.8989" ry="9.63651" fill="white"/>
<ellipse cx="506.739" cy="71.3102" rx="12.8989" ry="9.63651" fill="white"/>
<ellipse cx="471.899" cy="76.6103" rx="12.8989" ry="9.63651" fill="white"/>
<ellipse cx="528.548" cy="90.5832" rx="12.8989" ry="9.63651" fill="white"/>
<ellipse cx="484.665" cy="47.9417" rx="12.8989" ry="9.63651" fill="white"/>
<ellipse cx="541.58" cy="62.1555" rx="12.8989" ry="9.63651" fill="white"/>
<ellipse cx="515.782" cy="42.8825" rx="12.8989" ry="9.63651" fill="white"/>
</g>
<g opacity="0.5">
<ellipse cx="501.569" cy="486.914" rx="12.8989" ry="9.63651" fill="white"/>
<ellipse cx="510.612" cy="458.486" rx="12.8989" ry="9.63651" fill="white"/>
<ellipse cx="475.771" cy="463.786" rx="12.8989" ry="9.63651" fill="white"/>
<ellipse cx="532.42" cy="477.759" rx="12.8989" ry="9.63651" fill="white"/>
<ellipse cx="488.537" cy="435.117" rx="12.8989" ry="9.63651" fill="white"/>
<ellipse cx="545.452" cy="449.331" rx="12.8989" ry="9.63651" fill="white"/>
<ellipse cx="519.654" cy="430.058" rx="12.8989" ry="9.63651" fill="white"/>
<ellipse cx="514.601" cy="530.278" rx="12.8989" ry="9.63651" fill="white"/>
<ellipse cx="523.644" cy="501.85" rx="12.8989" ry="9.63651" fill="white"/>
<ellipse cx="488.803" cy="507.15" rx="12.8989" ry="9.63651" fill="white"/>
<ellipse cx="545.452" cy="521.123" rx="12.8989" ry="9.63651" fill="white"/>
<ellipse cx="501.569" cy="478.482" rx="12.8989" ry="9.63651" fill="white"/>
<ellipse cx="558.484" cy="492.695" rx="12.8989" ry="9.63651" fill="white"/>
<ellipse cx="532.686" cy="473.422" rx="12.8989" ry="9.63651" fill="white"/>
<ellipse cx="497.58" cy="439.695" rx="12.8989" ry="9.63651" fill="white"/>
<ellipse cx="506.622" cy="411.267" rx="12.8989" ry="9.63651" fill="white"/>
<ellipse cx="471.782" cy="416.567" rx="12.8989" ry="9.63651" fill="white"/>
<ellipse cx="528.431" cy="430.54" rx="12.8989" ry="9.63651" fill="white"/>
<ellipse cx="484.548" cy="387.898" rx="12.8989" ry="9.63651" fill="white"/>
<ellipse cx="541.463" cy="402.112" rx="12.8989" ry="9.63651" fill="white"/>
<ellipse cx="515.665" cy="382.839" rx="12.8989" ry="9.63651" fill="white"/>
<ellipse cx="558.218" cy="487.877" rx="12.8989" ry="9.63651" fill="white"/>
<ellipse cx="567.261" cy="459.45" rx="12.8989" ry="9.63651" fill="white"/>
<ellipse cx="532.42" cy="464.75" rx="12.8989" ry="9.63651" fill="white"/>
<ellipse cx="589.069" cy="478.723" rx="12.8989" ry="9.63651" fill="white"/>
<ellipse cx="545.186" cy="436.081" rx="12.8989" ry="9.63651" fill="white"/>
<ellipse cx="602.101" cy="450.295" rx="12.8989" ry="9.63651" fill="white"/>
<ellipse cx="576.303" cy="431.022" rx="12.8989" ry="9.63651" fill="white"/>
<ellipse cx="453.963" cy="520.641" rx="12.8989" ry="9.63651" fill="white"/>
<ellipse cx="463.005" cy="492.214" rx="12.8989" ry="9.63651" fill="white"/>
<ellipse cx="428.165" cy="497.514" rx="12.8989" ry="9.63651" fill="white"/>
<ellipse cx="484.814" cy="511.487" rx="12.8989" ry="9.63651" fill="white"/>
<ellipse cx="440.931" cy="468.845" rx="12.8989" ry="9.63651" fill="white"/>
<ellipse cx="497.846" cy="483.059" rx="12.8989" ry="9.63651" fill="white"/>
<ellipse cx="472.048" cy="463.786" rx="12.8989" ry="9.63651" fill="white"/>
<ellipse cx="453.697" cy="472.941" rx="12.8989" ry="9.63651" fill="white"/>
<ellipse cx="462.739" cy="444.513" rx="12.8989" ry="9.63651" fill="white"/>
<ellipse cx="427.899" cy="449.813" rx="12.8989" ry="9.63651" fill="white"/>
<ellipse cx="484.548" cy="463.786" rx="12.8989" ry="9.63651" fill="white"/>
<ellipse cx="440.665" cy="421.144" rx="12.8989" ry="9.63651" fill="white"/>
<ellipse cx="497.58" cy="435.358" rx="12.8989" ry="9.63651" fill="white"/>
<ellipse cx="471.782" cy="416.085" rx="12.8989" ry="9.63651" fill="white"/>
</g>
</g>
</svg>
