<svg width="93" height="100" viewBox="0 0 93 100" fill="none" xmlns="http://www.w3.org/2000/svg">
<path d="M92.024 0.207997C88.376 10.768 84.872 20.56 81.512 29.584C78.248 38.512 75.032 47.008 71.864 55.072C68.696 63.136 65.528 70.864 62.36 78.256C59.288 85.552 56.12 92.8 52.856 100H39.752C36.488 92.8 33.272 85.552 30.104 78.256C27.032 70.864 23.864 63.136 20.6 55.072C17.432 47.008 14.168 38.512 10.808 29.584C7.448 20.56 3.992 10.768 0.44 0.207997H15.848C21.032 15.376 26.12 29.968 31.112 43.984C36.104 58 41.24 71.152 46.52 83.44C51.8 71.248 56.936 58.144 61.928 44.128C66.92 30.016 71.96 15.376 77.048 0.207997H92.024Z" fill="url(#paint0_linear)"/>
<defs>
<linearGradient id="paint0_linear" x1="56.3387" y1="51" x2="56.3387" y2="40.5" gradientUnits="userSpaceOnUse">
<stop stop-color="#BD9176"/>
<stop offset="1" stop-color="#F2F2F2"/>
</linearGradient>
</defs>
</svg>
